solid cube
facet normal 0.000e0 -1.000e0 0.000e0
	outer loop
		vertex 0.000e0 0.000e0 0.000e0
		vertex 1.000e0 0.000e0 0.000e0
		vertex 1.000e0 0.000e0 1.000e0
	endloop
endfacet
facet normal 0.000e0 -1.000e0 0.000e0
	outer loop
		vertex 0.000e0 0.000e0 0.000e0
		vertex 1.000e0 0.000e0 1.000e0
		vertex 0.000e0 0.000e0 1.000e0
	endloop
endfacet
facet normal 1.000e0 0.000e0 0.000e0
	outer loop
		vertex 1.000e0 0.000e0 0.000e0
		vertex 1.000e0 1.000e0 0.000e0
		vertex 1.000e0 1.000e0 1.000e0
	endloop
endfacet
facet normal 1.000e0 0.000e0 0.000e0
	outer loop
		vertex 1.000e0 0.000e0 0.000e0
		vertex 1.000e0 1.000e0 1.000e0
		vertex 1.000e0 0.000e0 1.000e0
	endloop
endfacet
facet normal 0.000e0 1.000e0 0.000e0
	outer loop
		vertex 1.000e0 1.000e0 0.000e0
		vertex 0.000e0 1.000e0 0.000e0
		vertex 0.000e0 1.000e0 1.000e0
	endloop
endfacet
facet normal 0.000e0 1.000e0 -0.000e0
	outer loop
		vertex 1.000e0 1.000e0 0.000e0
		vertex 0.000e0 1.000e0 1.000e0
		vertex 1.000e0 1.000e0 1.000e0
	endloop
endfacet
facet normal -1.000e0 0.000e0 0.000e0
	outer loop
		vertex 0.000e0 1.000e0 0.000e0
		vertex 0.000e0 0.000e0 0.000e0
		vertex 0.000e0 0.000e0 1.000e0
	endloop
endfacet
facet normal -1.000e0 0.000e0 0.000e0
	outer loop
		vertex 0.000e0 1.000e0 0.000e0
		vertex 0.000e0 0.000e0 1.000e0
		vertex 0.000e0 1.000e0 1.000e0
	endloop
endfacet
facet normal 0.000e0 0.000e0 -1.000e0
	outer loop
		vertex 1.000e0 0.000e0 0.000e0
		vertex 0.000e0 0.000e0 0.000e0
		vertex 1.000e0 1.000e0 0.000e0
	endloop
endfacet
facet normal 0.000e0 0.000e0 -1.000e0
	outer loop
		vertex 0.000e0 0.000e0 0.000e0
		vertex 0.000e0 1.000e0 0.000e0
		vertex 1.000e0 1.000e0 0.000e0
	endloop
endfacet
facet normal 0.000e0 0.000e0 1.000e0
	outer loop
		vertex 0.000e0 0.000e0 1.000e0
		vertex 1.000e0 0.000e0 1.000e0
		vertex 1.000e0 1.000e0 1.000e0
	endloop
endfacet
facet normal 0.000e0 0.000e0 1.000e0
	outer loop
		vertex 0.000e0 0.000e0 1.000e0
		vertex 1.000e0 1.000e0 1.000e0
		vertex 0.000e0 1.000e0 1.000e0
	endloop
endfacet
endsolid cube